<?xml version="1.0" encoding="utf-8"?>
<!-- Generator: Adobe Illustrator 24.1.0, SVG Export Plug-In . SVG Version: 6.00 Build 0)  -->
<svg version="1.1" id="Layer_1" xmlns="http://www.w3.org/2000/svg" xmlns:xlink="http://www.w3.org/1999/xlink" x="0px" y="0px"
	 viewBox="0 0 212.6 35.43" style="enable-background:new 0 0 212.6 35.43;" xml:space="preserve">
<style type="text/css">
	.st0{fill:#FFFFFF;}
</style>
<path class="st0" d="M205.39,16.75l-0.4,2.21h5.17v5.36c-1.12,0.5-2.43,0.75-3.92,0.75c-1.33,0-2.55-0.33-3.67-0.99
	c-1.11-0.66-1.99-1.55-2.64-2.68c-0.65-1.13-0.97-2.37-0.97-3.72c0-1.35,0.33-2.59,1-3.72c0.67-1.13,1.57-2.02,2.72-2.68
	c1.15-0.66,2.4-0.99,3.77-0.99c0.87,0,1.72,0.12,2.53,0.37c0.82,0.25,1.58,0.6,2.29,1.07l0.43-2.4c-1.64-0.87-3.39-1.31-5.25-1.31
	c-1.83,0-3.51,0.43-5.04,1.28c-1.53,0.85-2.73,2.02-3.61,3.49c-0.88,1.48-1.32,3.1-1.32,4.88c0,1.78,0.43,3.4,1.29,4.88
	c0.86,1.48,2.04,2.64,3.53,3.49c1.49,0.85,3.14,1.28,4.93,1.28c1.12,0,2.23-0.13,3.32-0.4s2.07-0.64,2.92-1.12v-9.07H205.39z
	 M190.43,8.14l-2.4,0.4V21.9L174.51,7.55v19.46h2.4V13.47l13.52,14.34V8.14z M165.02,27.01h2.4V8.16l-2.4,0.37V27.01z M147.26,24.75
	V10.62h1.87c1.37,0,2.61,0.31,3.72,0.92c1.11,0.61,1.98,1.46,2.61,2.55c0.63,1.08,0.95,2.28,0.95,3.6c0,1.32-0.32,2.52-0.95,3.6
	c-0.63,1.08-1.5,1.93-2.61,2.55c-1.11,0.61-2.35,0.92-3.72,0.92H147.26z M144.86,27.01h4.29c1.83,0,3.49-0.4,4.97-1.21
	c1.48-0.81,2.65-1.92,3.51-3.35c0.85-1.42,1.28-3.01,1.28-4.77c0-1.76-0.43-3.35-1.28-4.77c-0.85-1.42-2.02-2.54-3.51-3.35
	c-1.49-0.81-3.14-1.21-4.97-1.21h-4.29V27.01z M137.81,8.14l-2.4,0.4V21.9L121.9,7.55v19.46h2.4V13.47l13.52,14.34V8.14z
	 M108.05,27.33c1.39,0,2.6-0.31,3.65-0.92c1.05-0.61,1.86-1.48,2.44-2.6c0.58-1.12,0.87-2.42,0.87-3.89V8.16l-2.4,0.37v11.17
	c0,1.08-0.19,2.03-0.56,2.84c-0.37,0.81-0.9,1.43-1.59,1.87c-0.68,0.44-1.49,0.65-2.41,0.65c-0.92,0-1.73-0.22-2.43-0.65
	c-0.69-0.43-1.23-1.06-1.6-1.87c-0.37-0.81-0.56-1.75-0.56-2.84V8.16l-2.4,0.37v11.39c0,1.48,0.29,2.77,0.87,3.89
	c0.58,1.12,1.39,1.99,2.45,2.6C105.45,27.03,106.67,27.33,108.05,27.33 M88.33,10.59h7.49L95.4,8.35h-9.47v18.66h2.4v-7.89h6.05
	v-2.24h-6.05V10.59z M72.01,24.77v-6.24h6.56V16.3h-6.56v-5.71h7.92l-0.4-2.24h-9.89v18.66h10.24l0.43-2.24H72.01z M55.72,24.77
	v-6.24h6.56V16.3h-6.56v-5.71h7.92l-0.4-2.24h-9.89v18.66h10.24l0.43-2.24H55.72z M41.45,27.33c1.15,0,2.17-0.24,3.05-0.71
	c0.88-0.47,1.56-1.11,2.04-1.93c0.48-0.82,0.72-1.73,0.72-2.75c0-1.24-0.35-2.33-1.05-3.27c-0.7-0.93-1.76-1.63-3.19-2.09l-1.23-0.4
	c-1.12-0.37-1.91-0.82-2.37-1.33c-0.46-0.51-0.69-1.13-0.69-1.84c0-0.53,0.12-1.01,0.37-1.44c0.25-0.43,0.6-0.76,1.05-1
	c0.45-0.24,0.98-0.36,1.59-0.36c1.35,0,2.82,0.56,4.4,1.68l0.43-2.4c-0.75-0.48-1.54-0.84-2.37-1.09c-0.83-0.25-1.65-0.37-2.45-0.37
	c-1.03,0-1.96,0.22-2.79,0.65c-0.83,0.43-1.47,1.03-1.93,1.8c-0.46,0.76-0.69,1.62-0.69,2.56c0,2.63,1.53,4.44,4.59,5.44l1.2,0.4
	c0.92,0.28,1.61,0.7,2.05,1.25c0.44,0.55,0.67,1.18,0.67,1.89c0,0.59-0.14,1.12-0.43,1.59c-0.28,0.47-0.69,0.84-1.2,1.11
	c-0.52,0.27-1.11,0.4-1.79,0.4c-0.91,0-1.8-0.21-2.69-0.64c-0.89-0.43-1.71-1-2.45-1.71l-0.48,2.51c0.75,0.59,1.59,1.08,2.55,1.47
	C39.29,27.14,40.33,27.33,41.45,27.33"/>
<path class="st0" d="M14,26.19l-4.25,4.25L14,34.69l4.25-4.25L14,26.19z M6.56,16.62L18.25,4.92L14,0.67L2.31,12.37
	c-2.93,2.93-2.93,7.7,0,10.63c2.24,2.24,5.68,2.83,8.55,1.46L11.82,24l-5.3-5.3C5.97,18.12,5.99,17.19,6.56,16.62 M25.69,12.37
	c-2.93-2.93-7.7-2.93-10.63,0l-5.32,5.32L14,21.93l5.31-5.31c0.28-0.28,0.66-0.44,1.07-0.44s0.78,0.16,1.07,0.44
	c0.28,0.28,0.44,0.66,0.44,1.06c0,0.4-0.16,0.78-0.44,1.06l-5.32,5.32l4.25,4.25L25.69,23C28.62,20.07,28.62,15.3,25.69,12.37"/>
</svg>
